<?xml version="1.0" standalone="no"?>
<!DOCTYPE svg PUBLIC "-//W3C//DTD SVG 1.1//EN" "http://www.w3.org/Graphics/SVG/1.1/DTD/svg11.dtd">
    <svg width="100mm" height="100mm" viewBox="-190 -190 380 380" xmlns="http://www.w3.org/2000/svg" version="1.1">
<title>das_synthikat</title>
<path d="
M -86.2803,-159.226 L -86.3143,-159.195 L -86.4645,-159.42 L -88.0866,-160.504 L -90,-160.885 L -91.9134,-160.504
L -93.5355,-159.42 L -94.6194,-157.798 L -95,-155.885 L -94.6607,-154.179 L -94.6953,-154.166 L -57.124,-51.5191
L -45.7488,-49.5346 L -76.392,-133.253 L 7.09061,-40.3164 L 23.0306,-37.5355 z
M 81.7783,-41.793 L 81.7264,-41.8364 L 82.5617,-43.0866 L 82.9423,-45 L 82.5617,-46.9134 L 81.4778,-48.5355
L 81.3966,-48.5898 L 81.4091,-48.6029 L 3.46687,-123.603 L 3.45428,-123.59 L 1.91341,-124.619 L 0,-125
L -1.91341,-124.619 L -3.53552,-123.536 L -4.61938,-121.913 L -4.69531,-121.532 L -4.75345,-121.551 L -15.6667,-88.0975
L -7.95035,-79.5073 L 2.27998,-110.867 L 71.1158,-44.6299 L 48.1042,-17.1046 L 54.8553,-9.58896 z
M -15.1127,-57.552 L -22.829,-66.1422 L -33.9855,-31.9432 L -28.4238,-16.7484 z
M -102.909,64.7983 L -102.889,64.892 L -68.4613,57.6165 L -64.8801,46.6388 L -97.1538,53.4591 L -74.2085,-39.2731
L -38.8651,-33.1072 L -35.7319,-42.7116 L -77.083,-49.9256 L -77.0992,-49.8323 L -77.9423,-50 L -79.8557,-49.6194
L -81.4778,-48.5355 L -82.5617,-46.9134 L -82.7077,-46.1791 L -82.7959,-46.201 L -108.777,58.799 L -108.688,58.8208
L -108.923,60 L -108.542,61.9134 L -107.459,63.5355 L -105.836,64.6194 L -103.923,65 z
M 50.4285,-27.6803 L -15.8274,-39.2391 L -18.9606,-29.6347 L 43.0223,-18.8213 z
M -16.1841,31.2377 L -37.8109,-27.8477 L -49.186,-29.8322 L -26.0683,33.3265 z
M 181.034,4.89195 L 181.014,4.79829 L 181.913,4.61938 L 183.536,3.53552 L 184.619,1.91341 L 185,-0
L 184.619,-1.91341 L 183.536,-3.53552 L 181.913,-4.61938 L 180.843,-4.83231 L 180.859,-4.9256 L 73.1789,-23.7113
L 65.7727,-14.8523 L 153.597,0.469254 L 31.3697,26.2989 L 20.9914,38.7129 z
M 68.6953,13.3006 L 44.6564,-13.4607 L 28.7164,-16.2415 L 57.3978,15.688 z
M 41.8958,5.9126 L 35.1447,-1.60304 L -5.21141,46.669 L -1.24243,57.5125 z
M -88.0866,160.504 L -86.4645,159.42 L -86.2159,159.048 L -86.1639,159.092 L -16.0549,75.2304 L -20.0238,64.3869
L -77.2047,132.784 L -38.4603,14.0175 L -44.022,-1.17735 L -94.7534,154.334 L -94.6953,154.353 L -95,155.885
L -94.6194,157.798 L -93.5355,159.42 L -91.9134,160.504 L -90,160.885 z
M 1.36499,94.7285 L 1.38675,94.8038 L 105.31,64.8038 L 105.288,64.7285 L 105.836,64.6194 L 107.459,63.5355
L 108.542,61.9134 L 108.923,60 L 108.542,58.0866 L 107.609,56.6892 L 107.643,56.6587 L 84.128,30.481
L 72.8305,32.8684 L 94.8738,57.4081 L 3.09276,83.903 L -9.23911,50.2118 L -19.1234,52.3006 L -4.69534,91.7186
L -4.66066,91.7059 L -4.61938,91.9134 L -3.53552,93.5355 L -1.91341,94.6194 L 0,95 z
M -10.6709,45.4039 L -0.292603,32.9899 L -42.2851,41.864 L -45.8663,52.8416 z
" stroke="black" fill="black" stroke-width="0.5">
<animateTransform attributeName="transform" type="rotate" from="0 0 0" to="360 0 0" dur="6s" repeatCount="indefinite"/>
</path>
</svg>
