<?xml version="1.0" standalone="no"?>
<!DOCTYPE svg PUBLIC "-//W3C//DTD SVG 1.1//EN" "http://www.w3.org/Graphics/SVG/1.1/DTD/svg11.dtd">
<svg width="100mm" height="100mm" viewBox="-190 -190 380 380" xmlns="http://www.w3.org/2000/svg" version="1.1">
<title>das_synthikat</title>
<path d="
M -102.909,64.7983 L -102.889,64.892 L -68.4613,57.6165 L -64.8801,46.6388 L -97.1538,53.4591 L -74.2085,-39.2731
L -38.8651,-33.1072 L -35.7319,-42.7116 L -77.083,-49.9256 L -77.0992,-49.8323 L -77.9423,-50 L -79.8557,-49.6194
L -81.4778,-48.5355 L -82.5617,-46.9134 L -82.7077,-46.1791 L -82.7959,-46.201 L -108.777,58.799 L -108.688,58.8208
L -108.923,60 L -108.542,61.9134 L -107.459,63.5355 L -105.836,64.6194 L -103.923,65 z
M 50.4285,-27.6803 L -15.8274,-39.2391 L -18.9606,-29.6347 L 43.0223,-18.8213 z
M 181.034,4.89195 L 181.014,4.79829 L 181.913,4.61938 L 183.536,3.53552 L 184.619,1.91341 L 185,-0
L 184.619,-1.91341 L 183.536,-3.53552 L 181.913,-4.61938 L 180.843,-4.83231 L 180.859,-4.9256 L 73.1789,-23.7113
L 65.7727,-14.8523 L 153.597,0.469254 L 31.3697,26.2989 L 20.9914,38.7129 z
M -10.6709,45.4039 L -0.292603,32.9899 L -42.2851,41.864 L -45.8663,52.8416 z
" stroke="#78ffbc" fill="#00ff80" stroke-width="3">
    <animateTransform attributeName="transform" type="rotate" from="0 0 0" to="360 0 0" dur="6s" repeatCount="indefinite"/>
</path>
<path d="
M -102.909,64.7983 L -102.889,64.892 L -68.4613,57.6165 L -64.8801,46.6388 L -97.1538,53.4591 L -74.2085,-39.2731
L -38.8651,-33.1072 L -35.7319,-42.7116 L -77.083,-49.9256 L -77.0992,-49.8323 L -77.9423,-50 L -79.8557,-49.6194
L -81.4778,-48.5355 L -82.5617,-46.9134 L -82.7077,-46.1791 L -82.7959,-46.201 L -108.777,58.799 L -108.688,58.8208
L -108.923,60 L -108.542,61.9134 L -107.459,63.5355 L -105.836,64.6194 L -103.923,65 z
M 50.4285,-27.6803 L -15.8274,-39.2391 L -18.9606,-29.6347 L 43.0223,-18.8213 z
M 181.034,4.89195 L 181.014,4.79829 L 181.913,4.61938 L 183.536,3.53552 L 184.619,1.91341 L 185,-0
L 184.619,-1.91341 L 183.536,-3.53552 L 181.913,-4.61938 L 180.843,-4.83231 L 180.859,-4.9256 L 73.1789,-23.7113
L 65.7727,-14.8523 L 153.597,0.469254 L 31.3697,26.2989 L 20.9914,38.7129 z
M -10.6709,45.4039 L -0.292603,32.9899 L -42.2851,41.864 L -45.8663,52.8416 z
" stroke="#d243ff" fill="#c617ff" stroke-width="3">
    <animateTransform attributeName="transform" type="rotate" from="120 0 0" to="480 0 0" dur="6s" repeatCount="indefinite"/>
</path>
<path d="
M -102.909,64.7983 L -102.889,64.892 L -68.4613,57.6165 L -64.8801,46.6388 L -97.1538,53.4591 L -74.2085,-39.2731
L -38.8651,-33.1072 L -35.7319,-42.7116 L -77.083,-49.9256 L -77.0992,-49.8323 L -77.9423,-50 L -79.8557,-49.6194
L -81.4778,-48.5355 L -82.5617,-46.9134 L -82.7077,-46.1791 L -82.7959,-46.201 L -108.777,58.799 L -108.688,58.8208
L -108.923,60 L -108.542,61.9134 L -107.459,63.5355 L -105.836,64.6194 L -103.923,65 z
M 50.4285,-27.6803 L -15.8274,-39.2391 L -18.9606,-29.6347 L 43.0223,-18.8213 z
M 181.034,4.89195 L 181.014,4.79829 L 181.913,4.61938 L 183.536,3.53552 L 184.619,1.91341 L 185,-0
L 184.619,-1.91341 L 183.536,-3.53552 L 181.913,-4.61938 L 180.843,-4.83231 L 180.859,-4.9256 L 73.1789,-23.7113
L 65.7727,-14.8523 L 153.597,0.469254 L 31.3697,26.2989 L 20.9914,38.7129 z
M -10.6709,45.4039 L -0.292603,32.9899 L -42.2851,41.864 L -45.8663,52.8416 z
" stroke="#feffa3r" fill="#feff50" stroke-width="3">
    <animateTransform attributeName="transform" type="rotate" from="240 0 0" to="600 0 0" dur="6s" repeatCount="indefinite"/>
</path>
</svg>
